<svg width="300" height="54" viewBox="0 0 300 54" fill="none" xmlns="http://www.w3.org/2000/svg">
<path d="M76.7791 7.78653H82.5927L93.5182 37.5169H88.306L85.5997 30.1348H73.5717L70.8653 37.5169H65.8536L76.7791 7.78653ZM84.2967 25.9888L79.5857 13.045L74.8747 25.9888H84.2967Z" fill="#61B37B"/>
<path d="M100.134 15.7753L100.936 21.1348L100.033 20.1236C100.635 18.809 101.537 17.6966 102.539 16.9888C103.542 16.1798 105.045 15.8764 106.95 15.8764H107.952V20.1236H105.947C104.043 20.1236 102.74 20.7304 101.838 21.9438C101.036 23.1573 100.535 24.7753 100.535 26.6966V37.618H96.024V15.7753H100.134Z" fill="#61B37B"/>
<path d="M112.763 44.2922C110.959 42.9776 109.957 41.1573 109.756 38.7304H114.367C114.668 39.9438 115.269 40.9551 116.271 41.5618C117.274 42.1686 118.577 42.5731 120.18 42.5731C122.185 42.5731 123.789 42.0674 124.791 41.0562C125.894 40.045 126.395 38.5281 126.395 36.5056V31.854L127.097 32.8652C126.395 34.382 125.393 35.4944 124.09 36.4045C122.786 37.2135 121.283 37.618 119.379 37.618C117.374 37.618 115.67 37.2135 114.166 36.3034C112.663 35.3933 111.46 34.1798 110.558 32.4607C109.656 30.7416 109.255 28.8203 109.255 26.5955C109.255 24.3708 109.656 22.4495 110.558 20.8315C111.46 19.1124 112.663 17.8989 114.267 16.9888C115.87 16.0787 117.574 15.5731 119.479 15.5731C121.383 15.5731 122.987 15.9776 124.29 16.8877C125.593 17.7978 126.495 18.9101 127.197 20.427L126.194 21.3371L126.996 15.7753H130.905V36.6068C130.905 39.6405 130.003 42.0674 128.199 43.6854C126.395 45.4045 123.588 46.2135 119.779 46.2135C116.873 46.2135 114.567 45.6068 112.763 44.2922ZM123.388 32.8652C124.39 32.2585 125.092 31.4495 125.593 30.3371C126.094 29.2247 126.395 28.0113 126.395 26.6967C126.395 25.2809 126.094 24.0674 125.593 22.9551C125.092 21.8427 124.39 20.9326 123.388 20.3259C122.386 19.7191 121.383 19.4158 120.08 19.4158C118.777 19.4158 117.675 19.7191 116.772 20.3259C115.77 20.9326 115.068 21.8427 114.567 22.854C114.066 23.9663 113.765 25.1798 113.765 26.5955C113.765 28.0113 114.066 29.2247 114.567 30.3371C115.068 31.4495 115.87 32.2585 116.772 32.8652C117.775 33.4719 118.877 33.7753 120.08 33.7753C121.383 33.7753 122.386 33.4719 123.388 32.8652Z" fill="#61B37B"/>
<path d="M139.726 36.4045C138.022 35.4944 136.719 34.1798 135.817 32.5618C134.915 30.8427 134.414 28.9214 134.414 26.6967C134.414 24.4719 134.815 22.4495 135.717 20.8315C136.619 19.2135 137.822 17.8989 139.425 16.9888C141.029 16.0787 142.833 15.5731 144.938 15.5731C147.043 15.5731 148.847 15.9776 150.451 16.7865C152.055 17.5955 153.258 18.809 154.16 20.427C155.062 22.045 155.563 23.8652 155.563 25.8877C155.563 26.191 155.563 26.3933 155.563 26.6967C155.563 27 155.563 27.3034 155.463 27.6068H139.325C139.325 27.7079 139.325 27.7079 139.325 27.7079V27.809C139.425 29.0225 139.626 30.1349 140.127 31.045C140.628 31.9551 141.33 32.6629 142.232 33.1686C143.134 33.6742 144.136 33.9776 145.339 33.9776C146.742 33.9776 147.945 33.6742 148.847 32.9663C149.85 32.2585 150.451 31.3483 150.752 30.1349H155.362C155.062 31.5506 154.561 32.8652 153.659 33.9776C152.756 35.0899 151.654 36 150.351 36.7079C148.948 37.3146 147.444 37.7191 145.74 37.7191C143.435 37.7191 141.43 37.3146 139.726 36.4045ZM142.432 19.8203C141.63 20.2247 140.929 20.8315 140.428 21.6405C139.926 22.4495 139.526 23.2585 139.425 24.2697H150.952C150.752 22.6517 150.15 21.3371 149.148 20.5281C148.146 19.618 146.742 19.2135 145.139 19.2135C144.237 19.2135 143.334 19.4158 142.432 19.8203Z" fill="#61B37B"/>
<path d="M163.281 15.7753L164.183 20.7304L163.08 19.618C163.882 18.4045 164.885 17.3933 166.088 16.6854C167.29 15.9776 168.794 15.5731 170.698 15.5731C173.204 15.5731 175.309 16.382 176.913 17.8989C178.517 19.5169 179.318 22.045 179.318 25.5843V37.5169H174.808V25.7865C174.808 23.7641 174.407 22.1461 173.505 21.0337C172.603 19.9214 171.3 19.4158 169.596 19.4158C168.393 19.4158 167.391 19.7191 166.488 20.2247C165.586 20.8315 164.985 21.6405 164.484 22.6517C163.983 23.6629 163.782 24.9776 163.782 26.4944V37.4158H159.272V15.7753H163.281Z" fill="#61B37B"/>
<path d="M186.235 36C185.332 34.9888 184.831 33.573 184.831 31.5506V19.8202H181.123V15.8764H184.831V9.80899H189.442V15.8764H194.654V19.8202H189.442V31.1461C189.442 32.0562 189.643 32.6629 189.943 32.9663C190.244 33.3708 190.845 33.4719 191.647 33.4719H195.055V37.5169H190.645C188.64 37.5169 187.137 37.0112 186.235 36Z" fill="#61B37B"/>
<path d="M219.312 7.78653C222.419 7.78653 224.825 8.49439 226.529 9.809C228.233 11.1236 229.034 13.045 229.034 15.4719C229.034 17.191 228.633 18.7079 227.731 19.8202C226.829 20.9326 225.526 21.7416 223.822 22.2472C225.827 22.6517 227.431 23.3596 228.533 24.573C229.636 25.6854 230.237 27.3034 230.237 29.3259C230.237 31.8539 229.335 33.8764 227.531 35.2922C225.727 36.7079 223.02 37.5169 219.612 37.5169H208.887V7.78653H219.312ZM212.496 20.6292H219.412C221.316 20.6292 222.72 20.2247 223.822 19.3146C224.825 18.5056 225.426 17.2921 225.426 15.7753C225.426 14.2584 224.925 13.1461 223.922 12.236C222.92 11.427 221.417 11.0225 219.512 11.0225H212.496V20.6292ZM212.496 34.0787H219.612C221.818 34.0787 223.622 33.6742 224.724 32.7641C225.927 31.8539 226.529 30.6405 226.529 29.1236C226.529 27.4045 225.927 26.191 224.724 25.2809C223.522 24.3708 221.818 23.9663 219.612 23.9663H212.496V34.0787Z" fill="#61B37B"/>
<path d="M237.254 17.3933C238.857 16.1798 240.962 15.5731 243.568 15.5731C246.275 15.5731 248.48 16.2809 249.983 17.5955C251.487 18.9101 252.188 20.8315 252.188 23.3596V32.6629C252.188 33.1686 252.289 33.5731 252.589 33.8764C252.89 34.1798 253.191 34.2809 253.592 34.2809H254.594V37.4158H252.69C251.186 37.4158 250.184 37.1124 249.582 36.4045C248.981 35.7978 248.78 34.7865 248.78 33.4719L248.881 32.7641L249.282 33.2697C248.48 34.5843 247.578 35.5955 246.275 36.4045C245.072 37.2135 243.468 37.618 241.564 37.618C239.158 37.618 237.254 37.0113 235.85 35.8989C234.447 34.7865 233.645 33.2697 233.645 31.2472C233.645 29.0225 234.347 27.4045 235.85 26.191C237.354 24.9776 239.459 24.4719 242.265 24.4719H248.58V22.9551C248.58 21.5394 248.079 20.427 247.177 19.618C246.275 18.809 244.972 18.4045 243.268 18.4045C241.764 18.4045 240.561 18.7079 239.559 19.4158C238.557 20.1236 237.955 20.9326 237.755 22.045H234.347C234.748 20.2247 235.65 18.5056 237.254 17.3933ZM242.065 27.6068C240.461 27.6068 239.258 27.9101 238.456 28.5169C237.655 29.1236 237.254 30.0337 237.254 31.2472C237.254 32.3596 237.655 33.1686 238.557 33.8764C239.358 34.4832 240.561 34.8877 241.965 34.8877C243.368 34.8877 244.571 34.5843 245.573 34.0787C246.575 33.5731 247.377 32.8652 247.878 31.9551C248.38 31.045 248.68 29.9326 248.68 28.7191V27.7079H242.065V27.6068Z" fill="#61B37B"/>
<path d="M260.307 15.7753L261.009 20.2247L260.307 19.3146C261.009 18.2023 262.011 17.2921 263.214 16.5843C264.417 15.8764 266.021 15.4719 267.825 15.4719C270.431 15.4719 272.536 16.2809 274.14 17.8989C275.743 19.5169 276.545 21.9438 276.545 25.382V37.4157H273.137V25.5843C273.137 23.3596 272.636 21.6405 271.634 20.427C270.631 19.2135 269.228 18.7079 267.324 18.7079C266.021 18.7079 264.818 19.0112 263.816 19.618C262.813 20.2247 262.112 21.1348 261.61 22.3483C261.109 23.5618 260.809 24.9775 260.809 26.5955V37.4157H257.401V15.7753H260.307Z" fill="#61B37B"/>
<path d="M284.364 7.78653V27.5056L295.289 15.8764H299.399L291.179 24.7753L300 37.5169H295.79L288.674 27.2023L284.364 31.7528V37.5169H280.956V7.78653H284.364Z" fill="#61B37B"/>
<path fill-rule="evenodd" clip-rule="evenodd" d="M4.31006 0H51.0191C53.4247 0 55.3291 1.92135 55.3291 4.34831V49.6517C55.3291 52.0787 53.4247 54 51.0191 54H4.31006C1.90444 54 0 52.0787 0 49.6517V4.34831C0 1.92135 1.90444 0 4.31006 0ZM20.2472 11.5281C13.8323 11.5281 8.62012 16.7865 8.62012 23.2584C8.62012 29.7303 13.8323 34.9888 20.2472 34.9888C26.6622 34.9888 31.8744 29.7303 31.8744 23.2584C31.8744 16.6854 26.6622 11.5281 20.2472 11.5281ZM45.9071 18.1011C43.5015 17.3933 40.9957 18.7079 40.294 21.1348C39.7929 22.7528 40.294 24.3708 41.2964 25.5843L35.4828 39.6404C37.287 41.4607 39.6926 42.2697 42.7999 41.8652L45.7066 26.8989C47.2102 26.4944 48.413 25.382 48.9141 23.764C49.6158 21.3371 48.3127 18.809 45.9071 18.1011ZM20.6482 17.8989V13.8539H19.3451V18C18.3428 18.2022 17.5409 18.6067 16.8393 19.2135L14.0327 16.2809L13.0304 17.191L15.9372 20.1236C15.436 20.9326 15.0351 21.8427 15.0351 22.8539H11.0257V24.1685H15.0351C15.2356 25.1798 15.6365 25.9888 16.2379 26.6966L13.4313 29.5281L14.3334 30.4382L17.2402 27.5056C18.0421 28.0112 18.9442 28.4157 19.8463 28.4157V32.4607H21.1494V28.3146C22.1517 28.1124 22.9536 27.7079 23.6552 27.1011L26.4617 29.9326L27.3639 29.0225L24.6575 26.2921C25.1587 25.4831 25.5596 24.573 25.5596 23.6629H29.569V22.2472H25.4594C25.2589 21.236 24.858 20.427 24.2566 19.7191L27.0632 16.8876L26.161 15.9775L23.2543 18.9101C22.5526 18.3034 21.6505 17.8989 20.6482 17.8989Z" fill="#61B37B"/>
</svg>
