<svg width="120" height="120" viewBox="0 0 120 120" fill="none" xmlns="http://www.w3.org/2000/svg">
    <circle cx="60" cy="60" r="60" fill="#61B37B"/>
    <path d="M60 10C32.4 10 10 32.4 10 60C10 87.6 32.4 110 60 110C87.6 110 110 87.6 110 60C110 32.4 87.6 10 60 10ZM60 100C37.95 100 20 82.05 20 60C20 37.95 37.95 20 60 20C82.05 20 100 37.95 100 60C100 82.05 82.05 100 60 100ZM61.55 55.7C52.7 53.45 49.85 51 49.85 47.35C49.85 43.15 53.8 40.2 60.35 40.2C67.25 40.2 69.85 43.5 70.05 48.4H78.6C78.35 41.7 74.25 35.55 66.15 33.55V25H54.5V33.45C46.95 35.05 40.9 39.95 40.9 47.5C40.9 56.45 48.35 60.95 59.2 63.55C68.95 65.85 70.9 69.3 70.9 72.9C70.9 75.55 68.95 79.85 60.4 79.85C52.4 79.85 49.25 76.25 48.8 71.65H40.2C40.7 80.15 47 84.95 54.5 86.5V95H66.2V86.65C73.8 85.2 79.8 80.85 79.85 72.8C79.8 61.8 70.35 58 61.55 55.7Z" fill="white"/>
</svg>
