<svg width="48" height="48" viewBox="0 0 48 48" fill="none" xmlns="http://www.w3.org/2000/svg">
<path d="M38.86 25.96C38.94 25.32 39 24.68 39 24C39 23.32 38.94 22.68 38.86 22.04L43.08 18.74C43.46 18.44 43.56 17.9 43.32 17.46L39.32 10.54C39.14 10.22 38.8 10.04 38.44 10.04C38.32 10.04 38.2 10.06 38.1 10.1L33.12 12.1C32.08 11.3 30.96 10.64 29.74 10.14L28.98 4.84C28.92 4.36 28.5 4 28 4H20C19.5 4 19.08 4.36 19.02 4.84L18.26 10.14C17.04 10.64 15.92 11.32 14.88 12.1L9.89998 10.1C9.77998 10.06 9.65998 10.04 9.53998 10.04C9.19998 10.04 8.85998 10.22 8.67998 10.54L4.67998 17.46C4.41998 17.9 4.53998 18.44 4.91998 18.74L9.13998 22.04C9.05998 22.68 8.99998 23.34 8.99998 24C8.99998 24.66 9.05998 25.32 9.13998 25.96L4.91998 29.26C4.53998 29.56 4.43998 30.1 4.67998 30.54L8.67998 37.46C8.85998 37.78 9.19998 37.96 9.55998 37.96C9.67998 37.96 9.79998 37.94 9.89998 37.9L14.88 35.9C15.92 36.7 17.04 37.36 18.26 37.86L19.02 43.16C19.08 43.64 19.5 44 20 44H28C28.5 44 28.92 43.64 28.98 43.16L29.74 37.86C30.96 37.36 32.08 36.68 33.12 35.9L38.1 37.9C38.22 37.94 38.34 37.96 38.46 37.96C38.8 37.96 39.14 37.78 39.32 37.46L43.32 30.54C43.56 30.1 43.46 29.56 43.08 29.26L38.86 25.96ZM34.9 22.54C34.98 23.16 35 23.58 35 24C35 24.42 34.96 24.86 34.9 25.46L34.62 27.72L36.4 29.12L38.56 30.8L37.16 33.22L34.62 32.2L32.54 31.36L30.74 32.72C29.88 33.36 29.06 33.84 28.24 34.18L26.12 35.04L25.8 37.3L25.4 40H22.6L22.22 37.3L21.9 35.04L19.78 34.18C18.92 33.82 18.12 33.36 17.32 32.76L15.5 31.36L13.38 32.22L10.84 33.24L9.43998 30.82L11.6 29.14L13.38 27.74L13.1 25.48C13.04 24.86 13 24.4 13 24C13 23.6 13.04 23.14 13.1 22.54L13.38 20.28L11.6 18.88L9.43998 17.2L10.84 14.78L13.38 15.8L15.46 16.64L17.26 15.28C18.12 14.64 18.94 14.16 19.76 13.82L21.88 12.96L22.2 10.7L22.6 8H25.38L25.76 10.7L26.08 12.96L28.2 13.82C29.06 14.18 29.86 14.64 30.66 15.24L32.48 16.64L34.6 15.78L37.14 14.76L38.54 17.18L36.4 18.88L34.62 20.28L34.9 22.54ZM24 16C19.58 16 16 19.58 16 24C16 28.42 19.58 32 24 32C28.42 32 32 28.42 32 24C32 19.58 28.42 16 24 16ZM24 28C21.8 28 20 26.2 20 24C20 21.8 21.8 20 24 20C26.2 20 28 21.8 28 24C28 26.2 26.2 28 24 28Z" fill="#61B37B"/>
</svg>
